<svg width="346" height="37" viewBox="0 0 346 37" fill="none" xmlns="http://www.w3.org/2000/svg">
<path d="M10.0195 30C10.0195 29.4844 9.83203 29.1914 9.45703 29.1211C9.33984 29.0977 9.22266 29.0859 9.10547 29.0859H7.24219V20.8945L9.07031 19.1719L17.4023 30H22.2891C22.2891 29.4844 22.1016 29.1914 21.7266 29.1211C21.6094 29.0977 21.4922 29.0859 21.375 29.0859H20.4258L11.25 17.1328L17.5078 11.2969C18.375 10.4766 19.0312 10.0078 19.4766 9.89062C19.6875 9.84375 19.9102 9.82031 20.1445 9.82031C20.6602 9.82031 20.9531 9.63281 21.0234 9.25781C21.0469 9.14062 21.0586 9.02344 21.0586 8.90625H14.7305V9.82031H17.543L7.24219 19.3125V9.82031H10.0195V8.90625H1.40625V9.82031H4.21875V29.0859H1.40625V30H10.0195ZM36.3952 30.3516C38.1998 30.3516 39.1959 29.2617 39.3834 27.082C39.4069 26.9414 39.4186 26.8125 39.4186 26.6953L38.5045 26.6602C38.3405 28.3711 37.8834 29.2383 37.1334 29.2617C36.5241 29.2148 36.2077 28.6055 36.1842 27.4336V20.0156C36.1842 16.6641 34.5084 14.8945 31.1569 14.707C30.9459 14.707 30.735 14.707 30.5241 14.707C27.8991 14.707 26.1413 15.3164 25.2506 16.5352C24.9694 16.9336 24.8288 17.332 24.8288 17.7305C24.8288 18.457 25.1686 18.8789 25.8483 18.9961C25.9655 19.0195 26.0827 19.0312 26.1998 19.0312C26.7389 19.0312 27.1373 18.6914 27.3952 18.0117C27.7233 17.1445 27.9459 16.6289 28.0631 16.4648C28.5084 15.8789 29.1998 15.5859 30.1373 15.5859C32.3405 15.7266 33.4772 16.9336 33.5475 19.207V21.4219C28.0397 21.4219 24.8873 22.5703 24.0905 24.8672C23.9498 25.3125 23.8795 25.793 23.8795 26.3086C23.8795 28.0898 24.6647 29.3086 26.235 29.9648C26.8678 30.2227 27.5358 30.3516 28.2389 30.3516C29.9498 30.3516 31.3913 29.7656 32.5631 28.5938C32.985 28.1484 33.3014 27.6797 33.5123 27.1875C33.7936 29.2734 34.7545 30.3281 36.3952 30.3516ZM29.3991 28.9453C27.9694 28.9453 27.0905 28.2305 26.7623 26.8008C26.692 26.4727 26.6569 26.1094 26.6569 25.7109C26.6569 24.1406 27.5592 23.1445 29.3639 22.7227C30.3248 22.5117 31.7194 22.3945 33.5475 22.3711V25.1836C33.1959 26.8008 32.3405 27.9375 30.9811 28.5938C30.442 28.8281 29.9147 28.9453 29.3991 28.9453ZM48.2864 29.1211H46.388V7.14844H41.1145V8.02734H43.7513V27.0117C43.7513 28.0898 43.4466 28.7344 42.8372 28.9453C42.4856 29.0625 41.9114 29.1211 41.1145 29.1211V30H49.1653C49.1653 29.4844 48.9895 29.2031 48.638 29.1562C48.5442 29.1328 48.427 29.1211 48.2864 29.1211ZM59.2284 15.5859C60.8691 15.5859 61.9589 16.2773 62.498 17.6602C62.6855 18.1055 62.7792 18.5859 62.7792 19.1016C62.7792 20.2734 62.2167 20.9883 61.0917 21.2461C60.5058 21.3633 59.6738 21.4102 58.5956 21.3867L54.8691 21.2812C54.9863 18.5859 55.8652 16.8281 57.5058 16.0078C58.0448 15.7266 58.6191 15.5859 59.2284 15.5859ZM65.3456 26.625L64.4667 26.3086C63.6464 28.0898 62.3222 29.0977 60.4941 29.332C60.2597 29.3555 60.037 29.3672 59.8261 29.3672C57.3652 29.3672 55.8183 27.9023 55.1855 24.9727C54.998 24.1523 54.8925 23.25 54.8691 22.2656L59.0878 22.3359C61.9472 22.3828 63.787 22.1133 64.6073 21.5273C65.2402 21.0586 65.5566 20.3906 65.5566 19.5234C65.5566 17.9297 64.748 16.6641 63.1308 15.7266C61.9823 15.0469 60.6581 14.707 59.1581 14.707C56.2284 14.707 54.1308 15.9258 52.8652 18.3633C52.2089 19.6289 51.8808 21.0586 51.8808 22.6523C51.8808 25.5586 52.9238 27.7148 55.0097 29.1211C56.2519 29.9414 57.6698 30.3516 59.2636 30.3516C61.7948 30.3516 63.6581 29.4375 64.8534 27.6094C65.0409 27.2812 65.205 26.9531 65.3456 26.625ZM70.7681 35.5898C70.3931 35.5898 70.1119 35.3086 69.9244 34.7461C69.6666 34.043 69.4205 33.6094 69.1861 33.4453C68.9752 33.3047 68.7291 33.2344 68.4478 33.2344C67.6978 33.2344 67.2642 33.5625 67.147 34.2188C67.1236 34.3125 67.1119 34.3945 67.1119 34.4648C67.1119 35.3555 67.6275 36 68.6588 36.3984C69.1275 36.5859 69.6197 36.6797 70.1353 36.6797C71.9869 36.6797 73.5923 35.543 74.9517 33.2695C75.5142 32.3555 76.0533 31.2656 76.5689 30L81.772 17.168C82.0064 16.5117 82.2642 16.1367 82.5455 16.043C82.7095 15.9961 82.897 15.9727 83.108 15.9727C83.5767 15.9727 83.8463 15.8438 83.9166 15.5859C83.9634 15.4453 83.9869 15.2695 83.9869 15.0586H78.6431V15.9727H81.2095L76.7095 27.2227L71.8931 15.9727H74.2486V15.0586H67.3931V15.9727H69.1158L75.4439 30C74.1314 33.0938 72.9009 34.8867 71.7525 35.3789C71.4244 35.5195 71.0963 35.5898 70.7681 35.5898ZM119.195 8.90625H113.57L105.976 26.0977L97.8202 8.90625H92.7928V9.82031H95.6053V29.0859H92.7928V30H99.8241C99.8241 29.4844 99.6366 29.1914 99.2616 29.1211C99.1444 29.0977 99.0272 29.0859 98.91 29.0859H97.0116V13.9688L104.711 30.1758H105.449L113.57 12.0703V29.0859H110.758V30H119.195C119.195 29.4844 119.008 29.1914 118.633 29.1211C118.515 29.0977 118.398 29.0859 118.281 29.0859H116.383V9.82031H119.195V8.90625ZM122.016 22.6875C122.016 25.5234 123.059 27.6445 125.145 29.0508C126.434 29.918 127.899 30.3516 129.54 30.3516C131.977 30.3516 133.817 29.4961 135.059 27.7852C135.34 27.3867 135.563 26.9883 135.727 26.5898L134.813 26.2734C133.946 28.125 132.516 29.1445 130.524 29.332C130.336 29.3555 130.149 29.3672 129.961 29.3672C128.297 29.3672 126.997 28.5352 126.059 26.8711C125.356 25.6055 125.004 24.1055 125.004 22.3711C125.004 19.3008 125.813 17.25 127.43 16.2188C128.11 15.7969 128.86 15.5859 129.68 15.5859C130.946 15.5859 131.707 16.0781 131.965 17.0625C132.012 17.25 132.071 17.543 132.141 17.9414C132.282 18.8789 132.54 19.4648 132.915 19.6992C133.149 19.8164 133.407 19.8867 133.688 19.9102C134.485 19.957 134.989 19.6289 135.2 18.9258C135.247 18.7617 135.27 18.6094 135.27 18.4688C135.27 17.2734 134.508 16.2891 132.985 15.5156C131.907 14.9766 130.735 14.707 129.469 14.707C126.329 14.707 124.137 15.9844 122.895 18.5391C122.309 19.7578 122.016 21.1406 122.016 22.6875ZM155.528 28.3828C155.528 29.3672 155.669 29.9297 155.95 30.0703C156.114 30.1406 156.337 30.1758 156.618 30.1758V23.5312H155.775C154.579 27.3984 152.189 29.3438 148.603 29.3672C145.556 29.3672 143.482 27.832 142.38 24.7617C141.841 23.2617 141.571 21.4922 141.571 19.4531C141.571 15.0703 142.778 12.0938 145.193 10.5234C146.247 9.86719 147.419 9.53906 148.708 9.53906C151.638 9.53906 153.759 10.9219 155.071 13.6875C155.306 14.1797 155.505 14.6836 155.669 15.1992H156.513L156.407 8.73047C155.892 8.73047 155.575 8.89453 155.458 9.22266C155.388 9.50391 155.353 9.96094 155.353 10.5938C154.673 9.91406 153.513 9.36328 151.872 8.94141C150.794 8.68359 149.693 8.55469 148.568 8.55469C144.864 8.55469 142.028 9.92578 140.06 12.668C138.7 14.6133 138.021 16.8516 138.021 19.3828C138.021 22.4531 138.97 25.0312 140.868 27.1172C142.884 29.2734 145.509 30.3516 148.743 30.3516C151.11 30.3281 153.372 29.6719 155.528 28.3828ZM172.306 30.3516C174.111 30.3516 175.107 29.2617 175.295 27.082C175.318 26.9414 175.33 26.8125 175.33 26.6953L174.416 26.6602C174.252 28.3711 173.795 29.2383 173.045 29.2617C172.435 29.2148 172.119 28.6055 172.095 27.4336V20.0156C172.095 16.6641 170.42 14.8945 167.068 14.707C166.857 14.707 166.646 14.707 166.435 14.707C163.81 14.707 162.053 15.3164 161.162 16.5352C160.881 16.9336 160.74 17.332 160.74 17.7305C160.74 18.457 161.08 18.8789 161.76 18.9961C161.877 19.0195 161.994 19.0312 162.111 19.0312C162.65 19.0312 163.049 18.6914 163.306 18.0117C163.635 17.1445 163.857 16.6289 163.974 16.4648C164.42 15.8789 165.111 15.5859 166.049 15.5859C168.252 15.7266 169.388 16.9336 169.459 19.207V21.4219C163.951 21.4219 160.799 22.5703 160.002 24.8672C159.861 25.3125 159.791 25.793 159.791 26.3086C159.791 28.0898 160.576 29.3086 162.146 29.9648C162.779 30.2227 163.447 30.3516 164.15 30.3516C165.861 30.3516 167.303 29.7656 168.474 28.5938C168.896 28.1484 169.213 27.6797 169.424 27.1875C169.705 29.2734 170.666 30.3281 172.306 30.3516ZM165.31 28.9453C163.881 28.9453 163.002 28.2305 162.674 26.8008C162.603 26.4727 162.568 26.1094 162.568 25.7109C162.568 24.1406 163.47 23.1445 165.275 22.7227C166.236 22.5117 167.631 22.3945 169.459 22.3711V25.1836C169.107 26.8008 168.252 27.9375 166.892 28.5938C166.353 28.8281 165.826 28.9453 165.31 28.9453ZM184.795 29.1211H182.264V22.125C182.264 19.9922 182.92 18.2812 184.233 16.9922C184.748 16.5 185.182 16.2422 185.534 16.2188C185.932 16.2188 186.295 16.5117 186.623 17.0977C186.998 17.7539 187.35 18.1289 187.678 18.2227C187.819 18.2695 187.959 18.293 188.1 18.293C188.803 18.293 189.248 17.9531 189.436 17.2734C189.483 17.1328 189.506 16.9922 189.506 16.8516C189.506 15.7969 188.967 15.1523 187.889 14.918C187.655 14.8711 187.432 14.8477 187.221 14.8477C185.815 14.8477 184.561 15.4453 183.459 16.6406C182.944 17.2031 182.534 17.8359 182.229 18.5391L182.088 15.0586H176.991V15.9375H179.627V27.0117C179.627 28.0898 179.323 28.7344 178.713 28.9453C178.362 29.0625 177.788 29.1211 176.991 29.1211V30H185.674C185.674 29.4844 185.498 29.2031 185.147 29.1562C185.053 29.1328 184.936 29.1211 184.795 29.1211ZM190.745 15.9375H193.206V25.8516C193.37 28.7812 194.718 30.293 197.249 30.3867C199.405 30.3867 200.753 29.0625 201.292 26.4141C201.292 26.3906 201.292 26.3672 201.292 26.3438L200.343 26.168C199.757 28.1133 198.901 29.168 197.776 29.332C196.511 29.2852 195.866 28.3828 195.843 26.625V15.9375H201.292V15.0586H195.843V10.9805L193.206 11.7188V15.0586H190.745V15.9375ZM209.984 29.1211H208.226V21.5273C208.226 19.3945 208.965 17.8477 210.441 16.8867C211.05 16.4883 211.683 16.2891 212.34 16.2891C213.769 16.2891 214.765 16.957 215.328 18.293C215.586 18.9258 215.715 19.6289 215.715 20.4023V27.0117C215.715 28.0898 215.457 28.7344 214.941 28.9453C214.613 29.0625 214.05 29.1211 213.254 29.1211V30H220.988C220.988 29.4844 220.812 29.2031 220.461 29.1562C220.367 29.1328 220.25 29.1211 220.109 29.1211H218.351V20.4023C218.351 17.8477 217.508 16.1133 215.82 15.1992C215.164 14.8711 214.461 14.707 213.711 14.707C211.976 14.707 210.523 15.3398 209.351 16.6055C208.859 17.1445 208.484 17.7539 208.226 18.4336V7.14844H202.953V8.02734H205.59V27.0117C205.59 28.0898 205.285 28.7344 204.675 28.9453C204.324 29.0625 203.75 29.1211 202.953 29.1211V30H210.863C210.863 29.4844 210.687 29.2031 210.336 29.1562C210.242 29.1328 210.125 29.1211 209.984 29.1211ZM225.883 35.5898C225.508 35.5898 225.227 35.3086 225.039 34.7461C224.782 34.043 224.535 33.6094 224.301 33.4453C224.09 33.3047 223.844 33.2344 223.563 33.2344C222.813 33.2344 222.379 33.5625 222.262 34.2188C222.239 34.3125 222.227 34.3945 222.227 34.4648C222.227 35.3555 222.742 36 223.774 36.3984C224.242 36.5859 224.735 36.6797 225.25 36.6797C227.102 36.6797 228.707 35.543 230.067 33.2695C230.629 32.3555 231.168 31.2656 231.684 30L236.887 17.168C237.121 16.5117 237.379 16.1367 237.66 16.043C237.825 15.9961 238.012 15.9727 238.223 15.9727C238.692 15.9727 238.961 15.8438 239.032 15.5859C239.078 15.4453 239.102 15.2695 239.102 15.0586H233.758V15.9727H236.325L231.825 27.2227L227.008 15.9727H229.364V15.0586H222.508V15.9727H224.231L230.559 30C229.246 33.0938 228.016 34.8867 226.867 35.3789C226.539 35.5195 226.211 35.5898 225.883 35.5898Z" fill="white"/>
</svg>
