<svg width="277" height="440" viewBox="0 0 277 440" fill="none" xmlns="http://www.w3.org/2000/svg">
<g filter="url(#filter0_d_1_123)">
<rect opacity="0.5" x="174" y="100" width="3" height="240" fill="white"/>
<rect x="174" y="100" width="3" height="60" fill="white"/>
<path d="M107.5 134V128.243H102.675V134H101.541V121.396H102.675V127.162H107.5V121.396H108.634V134H107.5ZM117.001 131.53C117.001 131.894 116.931 132.236 116.79 132.559C116.655 132.881 116.468 133.162 116.228 133.402C115.987 133.643 115.706 133.833 115.384 133.974C115.062 134.108 114.719 134.176 114.355 134.176H113.635C113.271 134.176 112.929 134.108 112.606 133.974C112.284 133.833 112.003 133.643 111.763 133.402C111.522 133.162 111.332 132.881 111.191 132.559C111.057 132.236 110.989 131.894 110.989 131.53V127.47C110.989 127.106 111.057 126.764 111.191 126.441C111.332 126.119 111.522 125.838 111.763 125.598C112.003 125.357 112.284 125.17 112.606 125.035C112.929 124.895 113.271 124.824 113.635 124.824H114.355C114.719 124.824 115.062 124.895 115.384 125.035C115.706 125.17 115.987 125.357 116.228 125.598C116.468 125.838 116.655 126.119 116.79 126.441C116.931 126.764 117.001 127.106 117.001 127.47V131.53ZM115.92 127.408C115.92 127.191 115.879 126.989 115.797 126.802C115.715 126.608 115.604 126.441 115.463 126.301C115.322 126.16 115.155 126.049 114.962 125.967C114.774 125.885 114.572 125.844 114.355 125.844H113.635C113.418 125.844 113.213 125.885 113.02 125.967C112.832 126.049 112.668 126.16 112.527 126.301C112.387 126.441 112.275 126.608 112.193 126.802C112.111 126.989 112.07 127.191 112.07 127.408V131.592C112.07 131.809 112.111 132.014 112.193 132.207C112.275 132.395 112.387 132.559 112.527 132.699C112.668 132.84 112.832 132.951 113.02 133.033C113.213 133.115 113.418 133.156 113.635 133.156H114.355C114.572 133.156 114.774 133.115 114.962 133.033C115.155 132.951 115.322 132.84 115.463 132.699C115.604 132.559 115.715 132.395 115.797 132.207C115.879 132.014 115.92 131.809 115.92 131.592V127.408ZM128.664 134V127.408C128.664 127.191 128.623 126.989 128.541 126.802C128.459 126.608 128.348 126.441 128.207 126.301C128.066 126.16 127.899 126.049 127.706 125.967C127.519 125.885 127.316 125.844 127.1 125.844H126.563C126.347 125.844 126.142 125.885 125.948 125.967C125.761 126.049 125.594 126.16 125.447 126.301C125.307 126.441 125.195 126.608 125.113 126.802C125.031 126.989 124.99 127.191 124.99 127.408V134H123.918V127.408C123.918 127.191 123.877 126.989 123.795 126.802C123.713 126.608 123.599 126.441 123.452 126.301C123.312 126.16 123.145 126.049 122.951 125.967C122.764 125.885 122.562 125.844 122.345 125.844H121.809C121.592 125.844 121.387 125.885 121.193 125.967C121.006 126.049 120.842 126.16 120.701 126.301C120.561 126.441 120.449 126.608 120.367 126.802C120.285 126.989 120.244 127.191 120.244 127.408V134H119.163V125H119.523L120.112 125.914C120.358 125.58 120.666 125.316 121.035 125.123C121.41 124.924 121.817 124.824 122.257 124.824H122.345C122.854 124.824 123.314 124.95 123.725 125.202C124.135 125.454 124.451 125.788 124.674 126.204C124.785 125.999 124.923 125.812 125.087 125.642C125.251 125.472 125.433 125.328 125.632 125.211C125.831 125.088 126.048 124.994 126.282 124.93C126.517 124.859 126.76 124.824 127.012 124.824H127.1C127.463 124.824 127.806 124.895 128.128 125.035C128.45 125.17 128.731 125.357 128.972 125.598C129.212 125.838 129.399 126.119 129.534 126.441C129.675 126.764 129.745 127.106 129.745 127.47V134H128.664ZM137.919 131.53C137.919 131.894 137.849 132.236 137.708 132.559C137.573 132.881 137.386 133.162 137.146 133.402C136.905 133.643 136.624 133.833 136.302 133.974C135.979 134.108 135.637 134.176 135.273 134.176H134.553C134.189 134.176 133.847 134.108 133.524 133.974C133.202 133.833 132.921 133.643 132.681 133.402C132.44 133.162 132.25 132.881 132.109 132.559C131.975 132.236 131.907 131.894 131.907 131.53V127.47C131.907 127.106 131.975 126.764 132.109 126.441C132.25 126.119 132.44 125.838 132.681 125.598C132.921 125.357 133.202 125.17 133.524 125.035C133.847 124.895 134.189 124.824 134.553 124.824H135.273C135.637 124.824 135.979 124.895 136.302 125.035C136.624 125.17 136.905 125.357 137.146 125.598C137.386 125.838 137.573 126.119 137.708 126.441C137.849 126.764 137.919 127.106 137.919 127.47V129.588H132.988V131.592C132.988 131.809 133.029 132.014 133.111 132.207C133.193 132.395 133.305 132.559 133.445 132.699C133.586 132.84 133.75 132.951 133.938 133.033C134.131 133.115 134.336 133.156 134.553 133.156H135.273C135.49 133.156 135.692 133.115 135.88 133.033C136.073 132.951 136.24 132.84 136.381 132.699C136.521 132.559 136.633 132.395 136.715 132.207C136.797 132.014 136.838 131.809 136.838 131.592V130.994L137.919 131.17V131.53ZM136.838 127.408C136.838 127.191 136.797 126.989 136.715 126.802C136.633 126.608 136.521 126.441 136.381 126.301C136.24 126.16 136.073 126.049 135.88 125.967C135.692 125.885 135.49 125.844 135.273 125.844H134.553C134.336 125.844 134.131 125.885 133.938 125.967C133.75 126.049 133.586 126.16 133.445 126.301C133.305 126.441 133.193 126.608 133.111 126.802C133.029 126.989 132.988 127.191 132.988 127.408V128.744H136.838V127.408Z" fill="white"/>
<path d="M128.409 194.082C128.409 194.51 128.327 194.911 128.163 195.286C128.005 195.661 127.785 195.989 127.504 196.271C127.223 196.552 126.895 196.774 126.52 196.938C126.145 197.097 125.743 197.176 125.315 197.176H124.779C124.352 197.176 123.947 197.097 123.566 196.938C123.191 196.774 122.863 196.552 122.582 196.271C122.301 195.989 122.078 195.661 121.914 195.286C121.756 194.911 121.677 194.51 121.677 194.082V187.314C121.677 186.887 121.756 186.485 121.914 186.11C122.078 185.735 122.301 185.407 122.582 185.126C122.863 184.845 123.191 184.625 123.566 184.467C123.947 184.303 124.352 184.221 124.779 184.221H125.315C125.743 184.221 126.145 184.303 126.52 184.467C126.895 184.625 127.223 184.845 127.504 185.126C127.785 185.407 128.005 185.735 128.163 186.11C128.327 186.485 128.409 186.887 128.409 187.314V194.082ZM127.275 187.314C127.275 187.033 127.223 186.772 127.117 186.532C127.012 186.286 126.868 186.072 126.687 185.891C126.505 185.709 126.291 185.565 126.045 185.46C125.805 185.354 125.544 185.302 125.263 185.302H124.832C124.551 185.302 124.287 185.354 124.041 185.46C123.801 185.565 123.587 185.709 123.399 185.891C123.218 186.072 123.074 186.286 122.969 186.532C122.863 186.772 122.811 187.033 122.811 187.314V194.082C122.811 194.363 122.863 194.627 122.969 194.873C123.074 195.113 123.218 195.327 123.399 195.515C123.587 195.696 123.801 195.84 124.041 195.945C124.287 196.051 124.551 196.104 124.832 196.104H125.263C125.544 196.104 125.805 196.051 126.045 195.945C126.291 195.84 126.505 195.696 126.687 195.515C126.868 195.327 127.012 195.113 127.117 194.873C127.223 194.627 127.275 194.363 127.275 194.082V187.314ZM131.125 197V195.919H134.131V185.478L131.125 186.743V185.662L134.131 184.396H135.265V195.919H138.271V197H131.125Z" fill="white"/>
<path d="M128.831 257.082C128.831 257.51 128.749 257.911 128.585 258.286C128.427 258.661 128.207 258.989 127.926 259.271C127.645 259.552 127.316 259.774 126.941 259.938C126.566 260.097 126.165 260.176 125.737 260.176H125.201C124.773 260.176 124.369 260.097 123.988 259.938C123.613 259.774 123.285 259.552 123.004 259.271C122.723 258.989 122.5 258.661 122.336 258.286C122.178 257.911 122.099 257.51 122.099 257.082V250.314C122.099 249.887 122.178 249.485 122.336 249.11C122.5 248.735 122.723 248.407 123.004 248.126C123.285 247.845 123.613 247.625 123.988 247.467C124.369 247.303 124.773 247.221 125.201 247.221H125.737C126.165 247.221 126.566 247.303 126.941 247.467C127.316 247.625 127.645 247.845 127.926 248.126C128.207 248.407 128.427 248.735 128.585 249.11C128.749 249.485 128.831 249.887 128.831 250.314V257.082ZM127.697 250.314C127.697 250.033 127.645 249.772 127.539 249.532C127.434 249.286 127.29 249.072 127.108 248.891C126.927 248.709 126.713 248.565 126.467 248.46C126.227 248.354 125.966 248.302 125.685 248.302H125.254C124.973 248.302 124.709 248.354 124.463 248.46C124.223 248.565 124.009 248.709 123.821 248.891C123.64 249.072 123.496 249.286 123.391 249.532C123.285 249.772 123.232 250.033 123.232 250.314V257.082C123.232 257.363 123.285 257.627 123.391 257.873C123.496 258.113 123.64 258.327 123.821 258.515C124.009 258.696 124.223 258.84 124.463 258.945C124.709 259.051 124.973 259.104 125.254 259.104H125.685C125.966 259.104 126.227 259.051 126.467 258.945C126.713 258.84 126.927 258.696 127.108 258.515C127.29 258.327 127.434 258.113 127.539 257.873C127.645 257.627 127.697 257.363 127.697 257.082V250.314ZM134.245 248.302C133.964 248.302 133.7 248.354 133.454 248.46C133.214 248.565 133.003 248.709 132.821 248.891C132.64 249.072 132.496 249.286 132.391 249.532C132.285 249.772 132.232 250.033 132.232 250.314V250.824L131.099 250.64V250.314C131.099 249.887 131.178 249.485 131.336 249.11C131.5 248.735 131.723 248.407 132.004 248.126C132.285 247.845 132.613 247.625 132.988 247.467C133.363 247.303 133.765 247.221 134.192 247.221H134.729C135.156 247.221 135.558 247.297 135.933 247.449C136.313 247.602 136.645 247.821 136.926 248.108C137.207 248.396 137.427 248.741 137.585 249.146C137.749 249.544 137.831 249.995 137.831 250.499C137.831 250.997 137.755 251.498 137.603 252.002C137.456 252.506 137.26 253.001 137.014 253.487C136.773 253.974 136.495 254.445 136.179 254.902C135.868 255.359 135.549 255.79 135.221 256.194C134.453 257.138 133.583 258.046 132.61 258.919H137.919V260H130.826V259.104C131.922 258.201 132.9 257.267 133.762 256.3C134.131 255.884 134.491 255.441 134.843 254.973C135.194 254.504 135.508 254.023 135.783 253.531C136.059 253.033 136.278 252.529 136.442 252.02C136.612 251.504 136.697 250.997 136.697 250.499C136.697 250.13 136.642 249.808 136.53 249.532C136.419 249.257 136.27 249.028 136.082 248.847C135.895 248.665 135.678 248.53 135.432 248.442C135.191 248.349 134.939 248.302 134.676 248.302H134.245Z" fill="white"/>
<path d="M128.462 320.082C128.462 320.51 128.38 320.911 128.216 321.286C128.058 321.661 127.838 321.989 127.557 322.271C127.275 322.552 126.947 322.774 126.572 322.938C126.197 323.097 125.796 323.176 125.368 323.176H124.832C124.404 323.176 124 323.097 123.619 322.938C123.244 322.774 122.916 322.552 122.635 322.271C122.354 321.989 122.131 321.661 121.967 321.286C121.809 320.911 121.729 320.51 121.729 320.082V313.314C121.729 312.887 121.809 312.485 121.967 312.11C122.131 311.735 122.354 311.407 122.635 311.126C122.916 310.845 123.244 310.625 123.619 310.467C124 310.303 124.404 310.221 124.832 310.221H125.368C125.796 310.221 126.197 310.303 126.572 310.467C126.947 310.625 127.275 310.845 127.557 311.126C127.838 311.407 128.058 311.735 128.216 312.11C128.38 312.485 128.462 312.887 128.462 313.314V320.082ZM127.328 313.314C127.328 313.033 127.275 312.772 127.17 312.532C127.064 312.286 126.921 312.072 126.739 311.891C126.558 311.709 126.344 311.565 126.098 311.46C125.857 311.354 125.597 311.302 125.315 311.302H124.885C124.604 311.302 124.34 311.354 124.094 311.46C123.854 311.565 123.64 311.709 123.452 311.891C123.271 312.072 123.127 312.286 123.021 312.532C122.916 312.772 122.863 313.033 122.863 313.314V320.082C122.863 320.363 122.916 320.627 123.021 320.873C123.127 321.113 123.271 321.327 123.452 321.515C123.64 321.696 123.854 321.84 124.094 321.945C124.34 322.051 124.604 322.104 124.885 322.104H125.315C125.597 322.104 125.857 322.051 126.098 321.945C126.344 321.84 126.558 321.696 126.739 321.515C126.921 321.327 127.064 321.113 127.17 320.873C127.275 320.627 127.328 320.363 127.328 320.082V313.314ZM137.726 320.082C137.726 320.51 137.644 320.911 137.479 321.286C137.321 321.661 137.102 321.989 136.82 322.271C136.539 322.552 136.211 322.774 135.836 322.938C135.461 323.097 135.06 323.176 134.632 323.176H134.096C133.668 323.176 133.264 323.097 132.883 322.938C132.508 322.774 132.18 322.552 131.898 322.271C131.617 321.989 131.395 321.661 131.23 321.286C131.072 320.911 130.993 320.51 130.993 320.082V319.757L132.127 319.581V320.082C132.127 320.363 132.18 320.627 132.285 320.873C132.391 321.113 132.534 321.327 132.716 321.515C132.903 321.696 133.117 321.84 133.357 321.945C133.604 322.051 133.867 322.104 134.148 322.104H134.579C134.86 322.104 135.121 322.051 135.361 321.945C135.607 321.84 135.821 321.696 136.003 321.515C136.185 321.327 136.328 321.113 136.434 320.873C136.539 320.627 136.592 320.363 136.592 320.082V319.036C136.592 318.755 136.539 318.494 136.434 318.254C136.328 318.008 136.185 317.794 136.003 317.612C135.821 317.431 135.607 317.287 135.361 317.182C135.121 317.076 134.86 317.023 134.579 317.023H133.735V315.942H134.579C134.86 315.942 135.121 315.89 135.361 315.784C135.607 315.679 135.821 315.535 136.003 315.354C136.185 315.172 136.328 314.961 136.434 314.721C136.539 314.475 136.592 314.211 136.592 313.93V313.314C136.592 313.033 136.539 312.772 136.434 312.532C136.328 312.286 136.185 312.072 136.003 311.891C135.821 311.709 135.607 311.565 135.361 311.46C135.121 311.354 134.86 311.302 134.579 311.302H134.148C133.867 311.302 133.604 311.354 133.357 311.46C133.117 311.565 132.903 311.709 132.716 311.891C132.534 312.072 132.391 312.286 132.285 312.532C132.18 312.772 132.127 313.033 132.127 313.314V313.824L130.993 313.64V313.314C130.993 312.887 131.072 312.485 131.23 312.11C131.395 311.735 131.617 311.407 131.898 311.126C132.18 310.845 132.508 310.625 132.883 310.467C133.264 310.303 133.668 310.221 134.096 310.221H134.632C135.06 310.221 135.461 310.303 135.836 310.467C136.211 310.625 136.539 310.845 136.82 311.126C137.102 311.407 137.321 311.735 137.479 312.11C137.644 312.485 137.726 312.887 137.726 313.314V313.745C137.726 314.044 137.685 314.331 137.603 314.606C137.526 314.876 137.415 315.128 137.269 315.362C137.128 315.597 136.958 315.811 136.759 316.004C136.56 316.191 136.337 316.353 136.091 316.487C136.337 316.616 136.56 316.777 136.759 316.971C136.958 317.158 137.128 317.369 137.269 317.604C137.415 317.838 137.526 318.093 137.603 318.368C137.685 318.638 137.726 318.922 137.726 319.221V320.082Z" fill="white"/>
</g>
<defs>
<filter id="filter0_d_1_123" x="0" y="0" width="277" height="440" filterUnits="userSpaceOnUse" color-interpolation-filters="sRGB">
<feFlood flood-opacity="0" result="BackgroundImageFix"/>
<feColorMatrix in="SourceAlpha" type="matrix" values="0 0 0 0 0 0 0 0 0 0 0 0 0 0 0 0 0 0 127 0" result="hardAlpha"/>
<feOffset/>
<feGaussianBlur stdDeviation="50"/>
<feColorMatrix type="matrix" values="0 0 0 0 0 0 0 0 0 0 0 0 0 0 0 0 0 0 0.2 0"/>
<feBlend mode="normal" in2="BackgroundImageFix" result="effect1_dropShadow_1_123"/>
<feBlend mode="normal" in="SourceGraphic" in2="effect1_dropShadow_1_123" result="shape"/>
</filter>
</defs>
</svg>
